# xmcd
#
# Track frame offsets:
#	150
#	13962
#	31662
#	47765
#	62927
#	79285
#	95860
#	109042
#	124627
#	143667
#	161012
#
# Disc length: 2358 seconds
# Revision: 1
# Processed by: cddbd v1.5.2PL0 Copyright (c) Steve Scherf et al.
# Submitted via: dBpowerAMP V12.0
#
DISCID=9309340b
DTITLE=Jennifer Nettles - Playing With Fire
DYEAR=2016
DGENRE=Country
TTITLE0=Playing With Fire
TTITLE1=Unlove You
TTITLE2=Hey Heartbreak
TTITLE3=Drunk In Heels
TTITLE4=Stupid Girl
TTITLE5=Three Days In Bed
TTITLE6=Sugar
TTITLE7=Chaser
TTITLE8=Starting Over
TTITLE9=Salvation Works
TTITLE10=Way Back Home
EXTD=
EXTT0=
EXTT1=
EXTT2=
EXTT3=
EXTT4=
EXTT5=
EXTT6=
EXTT7=
EXTT8=
EXTT9=
EXTT10=
PLAYORDER=
